HIERARCHY
ROOT Hips
{
  OFFSET 57.8838 95.319 338.509
  CHANNELS 6 Xposition Yposition Zposition Zrotation Xrotation Yrotation
  JOINT LeftUpLeg
  {
    OFFSET 8.64259 1.95398 -2.38835
    CHANNELS 3 Zrotation Xrotation Yrotation
    JOINT LeftLeg
    {
      OFFSET 43.7702 0 0
      CHANNELS 3 Zrotation Xrotation Yrotation
      JOINT LeftFoot
      {
        OFFSET 40.6238 0 0
        CHANNELS 3 Zrotation Xrotation Yrotation
        JOINT LeftToeBase
        {
          OFFSET 12.7242 0 0
          CHANNELS 3 Zrotation Xrotation Yrotation
          End Site
          {
            OFFSET 0 0 0
          }
        }
      }
    }
  }
  JOINT RightUpLeg
  {
    OFFSET -8.2249 1.95398 -2.59336
    CHANNELS 3 Zrotation Xrotation Yrotation
    JOINT RightLeg
    {
      OFFSET 43.5653 0 0
      CHANNELS 3 Zrotation Xrotation Yrotation
      JOINT RightFoot
      {
        OFFSET 40.6238 0 0
        CHANNELS 3 Zrotation Xrotation Yrotation
        JOINT RightToeBase
        {
          OFFSET 12.7242 0 0
          CHANNELS 3 Zrotation Xrotation Yrotation
          End Site
          {
            OFFSET 0 0 0
          }
        }
      }
    }
  }
  JOINT Spine
  {
    OFFSET 0.165834 0.87714 6.61349
    CHANNELS 3 Zrotation Xrotation Yrotation
    JOINT Spine1
    {
      OFFSET 7.38963 1.71661e-005 0
      CHANNELS 3 Zrotation Xrotation Yrotation
      JOINT Spine2
      {
        OFFSET 11.9445 1.14441e-005 0
        CHANNELS 3 Zrotation Xrotation Yrotation
        JOINT Spine3
        {
          OFFSET 14.7254 4.19617e-005 0
          CHANNELS 3 Zrotation Xrotation Yrotation
          JOINT Spine4
          {
            OFFSET 10.9679 0 0
            CHANNELS 3 Zrotation Xrotation Yrotation
            JOINT RightShoulder
            {
              OFFSET 2.46616 -1.6653 3.69651
              CHANNELS 3 Zrotation Xrotation Yrotation
              JOINT RightArm
              {
                OFFSET 13.0012 0 0
                CHANNELS 3 Zrotation Xrotation Yrotation
                JOINT RightForeArm
                {
                  OFFSET 28.7848 1.62311e-005 0
                  CHANNELS 3 Zrotation Xrotation Yrotation
                  JOINT RightHand
                  {
                    OFFSET 26.5688 1.62095e-005 0
                    CHANNELS 3 Zrotation Xrotation Yrotation
                    End Site
                    {
                      OFFSET 0 0 0
                    }
                  }
                }
              }
            }
            JOINT LeftShoulder
            {
              OFFSET 2.38034 -1.29275 -3.7523
              CHANNELS 3 Zrotation Xrotation Yrotation
              JOINT LeftArm
              {
                OFFSET 16.3182 6.07031e-005 0
                CHANNELS 3 Zrotation Xrotation Yrotation
                JOINT LeftForeArm
                {
                  OFFSET 27.0901 0 0
                  CHANNELS 3 Zrotation Xrotation Yrotation
                  JOINT LeftHand
                  {
                    OFFSET 24.5451 1.51738e-005 0
                    CHANNELS 3 Zrotation Xrotation Yrotation
                    End Site
                    {
                      OFFSET 0 0 0
                    }
                  }
                }
              }
            }
            JOINT Neck
            {
              OFFSET 5.0226 -0.0266342 0
              CHANNELS 3 Zrotation Xrotation Yrotation
              JOINT Head
              {
                OFFSET 6.69364 2.86102e-005 0
                CHANNELS 3 Zrotation Xrotation Yrotation
                End Site
                {
                  OFFSET 0 0 0
                }
              }
            }
          }
        }
      }
    }
  }
}
MOTION
Frames:	10
Frame Time:	0.0416667
36.1983 89.4735 -85.957 -4.8131 75.0421 -156.593 -179.918 -6.06431 90.8628 -29.2455 26.5305 5.90892 44.6898 -14.5011 -0.472385 21.8044 -2.75978 -0.661371 172.346 56.9957 98.7268 -62.7062 -9.27487 1.06847 66.8566 0.284474 12.4136 39.5149 -16.9339 -10.9565 -1.12347 9.50576 -91.5707 7.81542 -2.92762 -2.9445 -3.85527 -3.05432 -2.81285 -26.3768 -1.90802 -3.68755 -6.36418 -1.90801 -3.68755 96.42 -50.3763 -90.8792 38.5209 -12.0027 28.5347 -3.01524 -5.58127 -27.9078 -5.55057 -0.0511422 -4.54162 -84.2242 -44.5178 86.7327 0.234183 -14.003 -33.4548 7.62508 6.14259 -71.2762 16.7941 -1.75681 -14.2157 24.8955 2.28933 -24.271 -10.9974 8.22864 34.9285 
38.0474 90.3195 -107.053 -0.251531 79.451 -164.201 -179.409 -2.47579 88.1757 -65.202 10.6383 5.34084 49.2645 -6.83344 9.79453 17.5085 -5.97887 7.58282 170.027 49.2756 96.4404 -43.2455 -10.332 6.23695 61.2609 9.2317 18.4802 41.9086 -20.8341 -11.3774 -0.937961 9.89233 -91.6014 7.04469 -2.56064 -3.04621 -4.62706 -2.69218 -2.93065 -27.142 -1.52748 -3.67425 -7.12937 -1.52746 -3.67425 95.5677 -52.5735 -91.9228 28.9338 -6.7968 17.8795 2.17601 2.40669 -26.9031 -4.90477 -0.019291 -5.35281 -83.2601 -50.2403 88.9016 -2.11935 -9.27507 -22.7797 7.3467 9.19679 -65.4885 16.0107 -1.57861 -13.7405 29.8651 2.55037 -20.6579 -14.6854 7.20963 32.1925 
40.4166 87.7288 -127.772 11.3965 85.4442 -173.522 -171.992 18.1253 81.3339 -112.13 7.32137 5.86318 51.3327 -3.60811 12.2009 22.0185 -3.49566 5.38582 165.564 34.1025 103.177 -52.7049 -11.719 7.39422 68.6687 -1.31328 8.77322 38.2619 -13.032 -1.86382 -0.312333 10.3882 -92.0021 6.05606 -1.46668 -3.89261 -5.61961 -1.63646 -3.82443 -28.1089 -0.230086 -4.153 -8.09627 -0.230087 -4.153 95.8602 -55.9782 -91.0866 17.2311 -1.66295 -3.18683 5.18561 6.44658 -28.5222 -5.07272 -0.0439953 -5.02287 -84.7204 -54.7225 87.2276 -9.54056 -9.48991 -14.2253 4.43189 37.7702 -28.3014 9.6419 -1.36999 -16.2203 32.4431 1.98686 -21.8933 -15.3742 7.25602 34.6206 
42.1324 85.1116 -148.703 50.4024 81.3824 151.06 -172.506 53.0086 86.4021 -123.803 7.22595 6.73642 55.1213 -0.415042 14.7823 32.7531 1.4793 7.34735 172.676 20.2952 105.989 -51.0041 -13.8563 4.23048 75.3275 -18.4294 -1.661 45.8859 -22.1225 1.07578 0.358703 9.73751 -92.0586 7.35735 -0.172375 -4.0361 -4.32004 -0.349682 -4.02464 -26.805 1.04746 -3.90181 -6.79233 1.04745 -3.90181 95.6584 -54.1774 -91.5937 15.2493 -1.35275 -21.8803 1.0858 1.33068 -44.9745 -5.53114 -0.0761346 -3.97886 -84.0377 -56.8854 88.4253 -11.9501 -23.389 0.637539 -5.22429 75.1953 -1.24407 10.4842 -1.15422 -15.5542 33.2833 2.09305 -23.4988 -16.3599 7.74679 35.5663 
41.7295 89.1854 -172.666 51.9279 79.1482 137.589 -169.22 62.9179 78.3091 -88.2983 9.36764 3.93117 55.2258 -2.206 12.2666 37.8133 3.93969 8.86107 174.058 0.10733 91.3548 -36.3352 -15.7738 -2.56702 72.5211 -1.26054 16.0163 43.6369 -19.8293 -0.707907 0.771622 8.80235 -90.4483 9.27448 1.33776 -0.985442 -2.39619 1.2931 -1.04338 -24.9357 1.57207 -0.537782 -4.92311 1.57207 -0.537785 98.1326 -49.7845 -88.2804 15.2051 -7.09618 -21.3545 0.207345 5.91689 -77.3096 -4.27581 -0.139313 -1.58875 -84.7267 -53.2929 87.0522 -6.36482 -29.0857 17.2942 -2.11242 88.728 -0.138927 9.86331 -1.08264 -16.657 28.0831 0.055173 -16.0002 -14.113 3.58662 25.0099 
40.2197 92.8148 -197.691 28.3655 82.3035 159.695 175.166 53.1899 90.172 -41.7962 8.28951 -0.296124 53.3854 -4.97509 8.4003 32.8302 1.51913 7.83092 170.449 -14.5962 86.9611 -32.2675 -18.7263 -1.8442 52.8341 16.4686 15.8454 23.9935 8.08042 -9.29026 0.983361 8.46548 -90.2379 9.94817 1.85188 -0.623646 -1.72164 1.82264 -0.704583 -24.2675 1.95367 -0.0380436 -4.25484 1.95367 -0.0380468 99.8594 -48.6879 -85.6426 16.9127 -16.4735 -14.3015 -9.77337 9.40102 -91.6884 -3.16819 -0.103136 -1.57315 -85.745 -50.4892 85.1856 -7.41004 -27.7182 15.8844 -3.33082 87.4133 -0.0338421 11.0895 -1.24192 -17.1374 24.5362 -1.41853 -7.97225 -14.7798 -0.102795 13.7185 
39.855 92.0898 -220.337 -61.2161 89.3631 -111.82 -177.679 38.5055 85.848 -29.0146 11.2772 -4.44011 52.8821 -6.59632 9.53108 33.9182 2.22781 6.78067 173.409 -11.4142 88.5465 -82.6489 -20.9797 -3.42068 48.9591 17.6723 6.92708 20.9476 11.9929 -6.25499 0.572662 8.99957 -90.093 8.87567 1.10082 -0.253445 -2.79493 1.0886 -0.301659 -25.3328 1.12607 0.089131 -5.32016 1.12607 0.0891221 98.8121 -50.7297 -87.1582 19.8948 -24.546 -6.83896 -13.4801 11.6166 -80.8423 -2.77992 -0.0643794 -2.10373 -84.3656 -53.8342 87.6362 -11.9606 -28.8307 0.00176973 -1.87604 82.3126 -0.0129873 15.6382 -1.40341 -15.258 23.6564 -0.799639 -7.04019 -15.6039 0.378039 10.7647 
38.8954 87.9751 -242.144 -114.514 82.464 -64.486 -172.302 30.2913 75.2461 -49.1679 15.1163 -4.88139 59.2617 8.275 23.2442 38.6036 4.08229 3.04935 173.333 11.2832 89.3901 -128.598 -22.8319 -2.0504 49.214 15.1629 2.50221 20.0018 13.3961 -6.24997 -0.253618 9.40986 -89.4002 8.05643 -0.243438 1.19985 -3.61495 -0.190392 1.20938 -26.1473 -0.592784 1.07123 -6.13466 -0.592782 1.07123 98.0123 -53.9886 -88.1316 24.4555 -19.2441 -0.707037 -10.6825 2.04713 -57.0324 -9.00117 -0.267305 -2.03718 -83.5322 -55.2393 88.9802 -18.3879 -22.3169 -23.7162 -5.51118 69.4566 1.11788 15.0247 -1.44714 -15.2651 32.0478 0.0301193 -5.45267 -21.438 1.71286 3.8004 
37.5152 86.6158 -264.377 -113.188 74.3394 -68.5791 -175.325 11.689 74.0966 -53.497 21.4628 -2.48747 61.7417 16.6905 31.0352 54.6977 12.1244 7.67064 177.302 38.0594 86.8363 -127.972 -21.575 -2.33691 54.6057 8.95032 -1.54557 25.5352 5.48587 -8.79327 -1.11951 9.4796 -89.2288 7.926 -1.89773 1.62761 -3.74468 -1.82426 1.70953 -26.2874 -2.29912 0.981901 -6.27471 -2.2991 0.981894 98.3054 -54.5085 -87.6622 27.5479 -13.3192 3.47723 -7.3024 -14.1095 -29.2871 -8.00911 -0.177153 -2.77313 -85.051 -54.0237 86.6697 -17.5091 -12.7366 -37.0116 -3.02502 46.5082 -8.56516 10.1584 -1.69921 -18.9447 30.8463 -0.861542 -2.89907 -22.8298 0.194037 0.992208 
34.6745 90.8149 -288.912 -107.267 68.4381 -68.3544 -179.244 -6.15878 83.0698 -47.1723 20.6442 4.69725 60.5689 4.65088 13.7234 62.0894 16.426 9.03194 171.183 43.5488 91.3954 -83.4988 -14.5885 -1.4396 59.0685 4.49163 0.627091 30.2717 -2.06605 -8.19892 -1.49098 8.88704 -90.1527 9.09326 -3.04212 -0.0950244 -2.57416 -3.04337 0.0390878 -25.1351 -2.87278 -1.00567 -5.12243 -2.87279 -1.00568 99.7371 -52.868 -85.6308 31.5408 -15.05 14.6585 -4.14368 -24.4557 -18.0281 -6.09408 -0.14649 -2.60359 -83.2616 -51.3529 89.005 -8.19646 -1.67958 -35.8281 10.4166 25.9046 -40.4474 -5.09687 -0.514018 -35.0587 20.1611 -4.00285 -3.77981 -11.8514 -3.25089 5.5539 
